[37m2026-04-29 00:17:11.639[39m[0m[0m	[32m[1mDEBUG[22m[39m[0m[0m	[37mnative:1[39m[0m[0m[1m[37m	Pochi[39m[22m[0m[0m	pochi v0.6.8
[37m2026-04-29 00:17:12.092[39m[0m[0m	[32m[1mDEBUG[22m[39m[0m[0m	[37m$bunfs/root/pochi:519633[39m[0m[0m[1m[37m	loadAgents[39m[22m[0m[0m	Loaded 6 custom agents (6 valid, 0 invalid)
[37m2026-04-29 00:17:12.094[39m[0m[0m	[32m[1mDEBUG[22m[39m[0m[0m	[37m$bunfs/root/pochi:519634[39m[0m[0m[1m[37m	loadSkills[39m[22m[0m[0m	Loaded 2 skills (2 valid, 0 invalid)
[37m2026-04-29 00:17:12.343[39m[0m[0m	[32m[1mDEBUG[22m[39m[0m[0m	[37m$bunfs/root/pochi:416517[39m[0m[0m[1m[37m	MCPHub[39m[22m[0m[0m	MCP servers configuration changed via signal:
[37m2026-04-29 00:17:12.343[39m[0m[0m	[32m[1mDEBUG[22m[39m[0m[0m	[37m$bunfs/root/pochi:416629[39m[0m[0m[1m[37m	MCPHub[39m[22m[0m[0m	Build MCPHub Status
[37m2026-04-29 00:17:12.852[39m[0m[0m	[32m[1mDEBUG[22m[39m[0m[0m	[37mnative:7[39m[0m[0m[1m[37m	Pochi[39m[22m[0m[0m	Starting task runner...
[37m2026-04-29 00:17:12.926[39m[0m[0m	[32m[1mDEBUG[22m[39m[0m[0m	[37m$bunfs/root/pochi:507614[39m[0m[0m[1m[37m	generateTaskTitle[39m[22m[0m[0m	Generating task title, old: null, new: You are a software tester assigned to verify a test case using the agent browser.
[37m2026-04-29 00:17:28.773[39m[0m[0m	[32m[1mDEBUG[22m[39m[0m[0m	[37m$bunfs/root/pochi:463047[39m[0m[0m[1m[37m	listFiles[39m[22m[0m[0m	handling listFile with dirPath /home/user and recursive [90mundefined[39m
[37m2026-04-29 00:17:34.960[39m[0m[0m	[32m[1mDEBUG[22m[39m[0m[0m	[37m$bunfs/root/pochi:507614[39m[0m[0m[1m[37m	generateTaskTitle[39m[22m[0m[0m	Generating task title, old: You are a software tester assigned to verify a test case using the agent browser., new: Verify file upload and image display at localhost 3000
[37m2026-04-29 00:17:35.122[39m[0m[0m	[32m[1mDEBUG[22m[39m[0m[0m	[37m$bunfs/root/pochi:507614[39m[0m[0m[1m[37m	generateTaskTitle[39m[22m[0m[0m	Generating task title, old: null, new: Navigate to http://localhost:3000.
[37m2026-04-29 00:17:51.371[39m[0m[0m	[32m[1mDEBUG[22m[39m[0m[0m	[37m$bunfs/root/pochi:507614[39m[0m[0m[1m[37m	generateTaskTitle[39m[22m[0m[0m	Generating task title, old: Navigate to http://localhost:3000., new: Verify file upload functionality and image display on localhost3000
[37m2026-04-29 00:18:06.458[39m[0m[0m	[32m[1mDEBUG[22m[39m[0m[0m	[37m$bunfs/root/pochi:518560[39m[0m[0m[1m[37m	newTask[39m[22m[0m[0m	Browser stream webSocket connected.
[37m2026-04-29 00:18:06.478[39m[0m[0m	[32m[1mDEBUG[22m[39m[0m[0m	[37mnative:7[39m[0m[0m[1m[37m	MjpegToMp4[39m[22m[0m[0m	Saved frame 0: 1777421886.474
[37m2026-04-29 00:18:57.634[39m[0m[0m	[32m[1mDEBUG[22m[39m[0m[0m	[37m$bunfs/root/pochi:518560[39m[0m[0m[1m[37m	newTask[39m[22m[0m[0m	Browser stream webSocket connected.
[37m2026-04-29 00:18:57.681[39m[0m[0m	[32m[1mDEBUG[22m[39m[0m[0m	[37mnative:7[39m[0m[0m[1m[37m	MjpegToMp4[39m[22m[0m[0m	Saved frame 1: 1777421937.68
[37m2026-04-29 00:19:00.502[39m[0m[0m	[32m[1mDEBUG[22m[39m[0m[0m	[37mnative:7[39m[0m[0m[1m[37m	MjpegToMp4[39m[22m[0m[0m	Saved frame 2: 1777421940.501
[37m2026-04-29 00:19:14.289[39m[0m[0m	[32m[1mDEBUG[22m[39m[0m[0m	[37mnative:7[39m[0m[0m[1m[37m	MjpegToMp4[39m[22m[0m[0m	Saved frame 3: 1777421954.288
[37m2026-04-29 00:19:14.310[39m[0m[0m	[32m[1mDEBUG[22m[39m[0m[0m	[37mnative:7[39m[0m[0m[1m[37m	MjpegToMp4[39m[22m[0m[0m	Saved frame 4: 1777421954.309
[37m2026-04-29 00:19:14.339[39m[0m[0m	[32m[1mDEBUG[22m[39m[0m[0m	[37mnative:7[39m[0m[0m[1m[37m	MjpegToMp4[39m[22m[0m[0m	Saved frame 5: 1777421954.338
[37m2026-04-29 00:19:14.355[39m[0m[0m	[32m[1mDEBUG[22m[39m[0m[0m	[37mnative:7[39m[0m[0m[1m[37m	MjpegToMp4[39m[22m[0m[0m	Saved frame 6: 1777421954.354
[37m2026-04-29 00:19:14.371[39m[0m[0m	[32m[1mDEBUG[22m[39m[0m[0m	[37mnative:7[39m[0m[0m[1m[37m	MjpegToMp4[39m[22m[0m[0m	Saved frame 7: 1777421954.37
[37m2026-04-29 00:19:14.387[39m[0m[0m	[32m[1mDEBUG[22m[39m[0m[0m	[37mnative:7[39m[0m[0m[1m[37m	MjpegToMp4[39m[22m[0m[0m	Saved frame 8: 1777421954.387
[37m2026-04-29 00:19:14.404[39m[0m[0m	[32m[1mDEBUG[22m[39m[0m[0m	[37mnative:7[39m[0m[0m[1m[37m	MjpegToMp4[39m[22m[0m[0m	Saved frame 9: 1777421954.403
[37m2026-04-29 00:19:14.420[39m[0m[0m	[32m[1mDEBUG[22m[39m[0m[0m	[37mnative:7[39m[0m[0m[1m[37m	MjpegToMp4[39m[22m[0m[0m	Saved frame 10: 1777421954.42
[37m2026-04-29 00:19:14.437[39m[0m[0m	[32m[1mDEBUG[22m[39m[0m[0m	[37mnative:7[39m[0m[0m[1m[37m	MjpegToMp4[39m[22m[0m[0m	Saved frame 11: 1777421954.437
[37m2026-04-29 00:19:14.454[39m[0m[0m	[32m[1mDEBUG[22m[39m[0m[0m	[37mnative:7[39m[0m[0m[1m[37m	MjpegToMp4[39m[22m[0m[0m	Saved frame 12: 1777421954.454
[37m2026-04-29 00:19:14.471[39m[0m[0m	[32m[1mDEBUG[22m[39m[0m[0m	[37mnative:7[39m[0m[0m[1m[37m	MjpegToMp4[39m[22m[0m[0m	Saved frame 13: 1777421954.47
[37m2026-04-29 00:19:14.487[39m[0m[0m	[32m[1mDEBUG[22m[39m[0m[0m	[37mnative:7[39m[0m[0m[1m[37m	MjpegToMp4[39m[22m[0m[0m	Saved frame 14: 1777421954.487
[37m2026-04-29 00:19:14.504[39m[0m[0m	[32m[1mDEBUG[22m[39m[0m[0m	[37mnative:7[39m[0m[0m[1m[37m	MjpegToMp4[39m[22m[0m[0m	Saved frame 15: 1777421954.504
[37m2026-04-29 00:19:14.521[39m[0m[0m	[32m[1mDEBUG[22m[39m[0m[0m	[37mnative:7[39m[0m[0m[1m[37m	MjpegToMp4[39m[22m[0m[0m	Saved frame 16: 1777421954.521
[37m2026-04-29 00:19:14.538[39m[0m[0m	[32m[1mDEBUG[22m[39m[0m[0m	[37mnative:7[39m[0m[0m[1m[37m	MjpegToMp4[39m[22m[0m[0m	Saved frame 17: 1777421954.537
[37m2026-04-29 00:19:14.604[39m[0m[0m	[32m[1mDEBUG[22m[39m[0m[0m	[37mnative:7[39m[0m[0m[1m[37m	MjpegToMp4[39m[22m[0m[0m	Saved frame 18: 1777421954.603
[37m2026-04-29 00:19:21.392[39m[0m[0m	[32m[1mDEBUG[22m[39m[0m[0m	[37mnative:7[39m[0m[0m[1m[37m	MjpegToMp4[39m[22m[0m[0m	Saved frame 19: 1777421961.392
[37m2026-04-29 00:19:32.657[39m[0m[0m	[32m[1mDEBUG[22m[39m[0m[0m	[37m$bunfs/root/pochi:104654[39m[0m[0m[1m[37m	MjpegToMp4[39m[22m[0m[0m	[ffmpeg] start: ffmpeg -safe 0 -f concat -i /tmp/pochi-mjpeg2mp4-eByWrf/frames.ffconcat -y -vcodec libx264 -filter:v scale=854:480:force_original_aspect_ratio=decrease,pad=854:480:(ow-iw)/2:(oh-ih)/2:color=black -pix_fmt yuv420p -movflags +faststart -preset veryfast -crf 23 -an -f mp4 /tmp/pochi-browser-agent-video-3e2f6c9c-4d08-45f0-93bb-afc7ad46f23c.mp4
[37m2026-04-29 00:19:32.707[39m[0m[0m	[32m[1mDEBUG[22m[39m[0m[0m	[37m$bunfs/root/pochi:104693[39m[0m[0m[1m[37m	MjpegToMp4[39m[22m[0m[0m	[ffmpeg] stderr: ffmpeg version 6.1.1-3ubuntu5 Copyright (c) 2000-2023 the FFmpeg developers
[37m2026-04-29 00:19:32.708[39m[0m[0m	[32m[1mDEBUG[22m[39m[0m[0m	[37m$bunfs/root/pochi:104693[39m[0m[0m[1m[37m	MjpegToMp4[39m[22m[0m[0m	[ffmpeg] stderr:   built with gcc 13 (Ubuntu 13.2.0-23ubuntu3)
[37m2026-04-29 00:19:32.708[39m[0m[0m	[32m[1mDEBUG[22m[39m[0m[0m	[37m$bunfs/root/pochi:104693[39m[0m[0m[1m[37m	MjpegToMp4[39m[22m[0m[0m	[ffmpeg] stderr:   configuration: --prefix=/usr --extra-version=3ubuntu5 --toolchain=hardened --libdir=/usr/lib/x86_64-linux-gnu --incdir=/usr/include/x86_64-linux-gnu --arch=amd64 --enable-gpl --disable-stripping --disable-omx --enable-gnutls --enable-libaom --enable-libass --enable-libbs2b --enable-libcaca --enable-libcdio --enable-libcodec2 --enable-libdav1d --enable-libflite --enable-libfontconfig --enable-libfreetype --enable-libfribidi --enable-libglslang --enable-libgme --enable-libgsm --enable-libharfbuzz --enable-libmp3lame --enable-libmysofa --enable-libopenjpeg --enable-libopenmpt --enable-libopus --enable-librubberband --enable-libshine --enable-libsnappy --enable-libsoxr --enable-libspeex --enable-libtheora --enable-libtwolame --enable-libvidstab --enable-libvorbis --enable-libvpx --enable-libwebp --enable-libx265 --enable-libxml2 --enable-libxvid --enable-libzimg --enable-openal --enable-opencl --enable-opengl --disable-sndio --enable-libvpl --disable-libmfx --enable-libdc1394 --enable-libdrm --enable-libiec61883 --enable-chromaprint --enable-frei0r --enable-ladspa --enable-libbluray --enable-libjack --enable-libpulse --enable-librabbitmq --enable-librist --enable-libsrt --enable-libssh --enable-libsvtav1 --enable-libx264 --enable-libzmq --enable-libzvbi --enable-lv2 --enable-sdl2 --enable-libplacebo --enable-librav1e --enable-pocketsphinx --enable-librsvg --enable-libjxl --enable-shared
[37m2026-04-29 00:19:32.708[39m[0m[0m	[32m[1mDEBUG[22m[39m[0m[0m	[37m$bunfs/root/pochi:104693[39m[0m[0m[1m[37m	MjpegToMp4[39m[22m[0m[0m	[ffmpeg] stderr:   libavutil      58. 29.100 / 58. 29.100
[37m2026-04-29 00:19:32.708[39m[0m[0m	[32m[1mDEBUG[22m[39m[0m[0m	[37m$bunfs/root/pochi:104693[39m[0m[0m[1m[37m	MjpegToMp4[39m[22m[0m[0m	[ffmpeg] stderr:   libavcodec     60. 31.102 / 60. 31.102
[37m2026-04-29 00:19:32.709[39m[0m[0m	[32m[1mDEBUG[22m[39m[0m[0m	[37m$bunfs/root/pochi:104693[39m[0m[0m[1m[37m	MjpegToMp4[39m[22m[0m[0m	[ffmpeg] stderr:   libavformat    60. 16.100 / 60. 16.100
[37m2026-04-29 00:19:32.709[39m[0m[0m	[32m[1mDEBUG[22m[39m[0m[0m	[37m$bunfs/root/pochi:104693[39m[0m[0m[1m[37m	MjpegToMp4[39m[22m[0m[0m	[ffmpeg] stderr:   libavdevice    60.  3.100 / 60.  3.100
[37m2026-04-29 00:19:32.709[39m[0m[0m	[32m[1mDEBUG[22m[39m[0m[0m	[37m$bunfs/root/pochi:104693[39m[0m[0m[1m[37m	MjpegToMp4[39m[22m[0m[0m	[ffmpeg] stderr:   libavfilter     9. 12.100 /  9. 12.100
[37m2026-04-29 00:19:32.709[39m[0m[0m	[32m[1mDEBUG[22m[39m[0m[0m	[37m$bunfs/root/pochi:104693[39m[0m[0m[1m[37m	MjpegToMp4[39m[22m[0m[0m	[ffmpeg] stderr:   libswscale      7.  5.100 /  7.  5.100
[37m2026-04-29 00:19:32.709[39m[0m[0m	[32m[1mDEBUG[22m[39m[0m[0m	[37m$bunfs/root/pochi:104693[39m[0m[0m[1m[37m	MjpegToMp4[39m[22m[0m[0m	[ffmpeg] stderr:   libswresample   4. 12.100 /  4. 12.100
[37m2026-04-29 00:19:32.709[39m[0m[0m	[32m[1mDEBUG[22m[39m[0m[0m	[37m$bunfs/root/pochi:104693[39m[0m[0m[1m[37m	MjpegToMp4[39m[22m[0m[0m	[ffmpeg] stderr:   libpostproc    57.  3.100 / 57.  3.100
[37m2026-04-29 00:19:32.709[39m[0m[0m	[32m[1mDEBUG[22m[39m[0m[0m	[37m$bunfs/root/pochi:104693[39m[0m[0m[1m[37m	MjpegToMp4[39m[22m[0m[0m	[ffmpeg] stderr: Input #0, concat, from '/tmp/pochi-mjpeg2mp4-eByWrf/frames.ffconcat':
[37m2026-04-29 00:19:32.709[39m[0m[0m	[32m[1mDEBUG[22m[39m[0m[0m	[37m$bunfs/root/pochi:104693[39m[0m[0m[1m[37m	MjpegToMp4[39m[22m[0m[0m	[ffmpeg] stderr:   Duration: N/A, start: 0.000000, bitrate: N/A
[37m2026-04-29 00:19:32.709[39m[0m[0m	[32m[1mDEBUG[22m[39m[0m[0m	[37m$bunfs/root/pochi:104693[39m[0m[0m[1m[37m	MjpegToMp4[39m[22m[0m[0m	[ffmpeg] stderr:   Stream #0:0: Video: mjpeg (Baseline), yuvj420p(pc, bt470bg/unknown/unknown), 1280x577 [SAR 1:1 DAR 1280:577], 25 fps, 25 tbr, 25 tbn
[37m2026-04-29 00:19:32.710[39m[0m[0m	[32m[1mDEBUG[22m[39m[0m[0m	[37m$bunfs/root/pochi:104693[39m[0m[0m[1m[37m	MjpegToMp4[39m[22m[0m[0m	[ffmpeg] stderr: Stream mapping:
[37m2026-04-29 00:19:32.710[39m[0m[0m	[32m[1mDEBUG[22m[39m[0m[0m	[37m$bunfs/root/pochi:104693[39m[0m[0m[1m[37m	MjpegToMp4[39m[22m[0m[0m	[ffmpeg] stderr:   Stream #0:0 -> #0:0 (mjpeg (native) -> h264 (libx264))
[37m2026-04-29 00:19:32.710[39m[0m[0m	[32m[1mDEBUG[22m[39m[0m[0m	[37m$bunfs/root/pochi:104693[39m[0m[0m[1m[37m	MjpegToMp4[39m[22m[0m[0m	[ffmpeg] stderr: Press [q] to stop, [?] for help
[37m2026-04-29 00:19:32.713[39m[0m[0m	[32m[1mDEBUG[22m[39m[0m[0m	[37m$bunfs/root/pochi:104693[39m[0m[0m[1m[37m	MjpegToMp4[39m[22m[0m[0m	[ffmpeg] stderr: [swscaler @ 0x580af7491800] deprecated pixel format used, make sure you did set range correctly
[37m2026-04-29 00:19:32.718[39m[0m[0m	[32m[1mDEBUG[22m[39m[0m[0m	[37m$bunfs/root/pochi:104693[39m[0m[0m[1m[37m	MjpegToMp4[39m[22m[0m[0m	[ffmpeg] stderr: [swscaler @ 0x580af757ec40] deprecated pixel format used, make sure you did set range correctly
[37m2026-04-29 00:19:32.730[39m[0m[0m	[32m[1mDEBUG[22m[39m[0m[0m	[37m$bunfs/root/pochi:104693[39m[0m[0m[1m[37m	MjpegToMp4[39m[22m[0m[0m	[ffmpeg] stderr:     Last message repeated 2 times
[37m2026-04-29 00:19:32.730[39m[0m[0m	[32m[1mDEBUG[22m[39m[0m[0m	[37m$bunfs/root/pochi:104693[39m[0m[0m[1m[37m	MjpegToMp4[39m[22m[0m[0m	[ffmpeg] stderr: [libx264 @ 0x580af7477f80] using SAR=1/1
[37m2026-04-29 00:19:32.731[39m[0m[0m	[32m[1mDEBUG[22m[39m[0m[0m	[37m$bunfs/root/pochi:104693[39m[0m[0m[1m[37m	MjpegToMp4[39m[22m[0m[0m	[ffmpeg] stderr: [libx264 @ 0x580af7477f80] using cpu capabilities: MMX2 SSE2Fast SSSE3 SSE4.2 AVX FMA3 BMI2 AVX2
[37m2026-04-29 00:19:32.732[39m[0m[0m	[32m[1mDEBUG[22m[39m[0m[0m	[37m$bunfs/root/pochi:104693[39m[0m[0m[1m[37m	MjpegToMp4[39m[22m[0m[0m	[ffmpeg] stderr: [libx264 @ 0x580af7477f80] profile High, level 3.0, 4:2:0, 8-bit
[37m2026-04-29 00:19:32.732[39m[0m[0m	[32m[1mDEBUG[22m[39m[0m[0m	[37m$bunfs/root/pochi:104693[39m[0m[0m[1m[37m	MjpegToMp4[39m[22m[0m[0m	[ffmpeg] stderr: [libx264 @ 0x580af7477f80] 264 - core 164 r3108 31e19f9 - H.264/MPEG-4 AVC codec - Copyleft 2003-2023 - http://www.videolan.org/x264.html - options: cabac=1 ref=1 deblock=1:0:0 analyse=0x3:0x113 me=hex subme=2 psy=1 psy_rd=1.00:0.00 mixed_ref=0 me_range=16 chroma_me=1 trellis=0 8x8dct=1 cqm=0 deadzone=21,11 fast_pskip=1 chroma_qp_offset=0 threads=6 lookahead_threads=2 sliced_threads=0 nr=0 decimate=1 interlaced=0 bluray_compat=0 constrained_intra=0 bframes=3 b_pyramid=2 b_adapt=1 b_bias=0 direct=1 weightb=1 open_gop=0 weightp=1 keyint=250 keyint_min=25 scenecut=40 intra_refresh=0 rc_lookahead=10 rc=crf mbtree=1 crf=23.0 qcomp=0.60 qpmin=0 qpmax=69 qpstep=4 ip_ratio=1.40 aq=1:1.00
[37m2026-04-29 00:19:32.732[39m[0m[0m	[32m[1mDEBUG[22m[39m[0m[0m	[37m$bunfs/root/pochi:104693[39m[0m[0m[1m[37m	MjpegToMp4[39m[22m[0m[0m	[ffmpeg] stderr: Output #0, mp4, to '/tmp/pochi-browser-agent-video-3e2f6c9c-4d08-45f0-93bb-afc7ad46f23c.mp4':
[37m2026-04-29 00:19:32.732[39m[0m[0m	[32m[1mDEBUG[22m[39m[0m[0m	[37m$bunfs/root/pochi:104693[39m[0m[0m[1m[37m	MjpegToMp4[39m[22m[0m[0m	[ffmpeg] stderr:   Metadata:
[37m2026-04-29 00:19:32.733[39m[0m[0m	[32m[1mDEBUG[22m[39m[0m[0m	[37m$bunfs/root/pochi:104693[39m[0m[0m[1m[37m	MjpegToMp4[39m[22m[0m[0m	[ffmpeg] stderr:     encoder         : Lavf60.16.100
[37m2026-04-29 00:19:32.733[39m[0m[0m	[32m[1mDEBUG[22m[39m[0m[0m	[37m$bunfs/root/pochi:104693[39m[0m[0m[1m[37m	MjpegToMp4[39m[22m[0m[0m	[ffmpeg] stderr:   Stream #0:0: Video: h264 (avc1 / 0x31637661), yuv420p(tv, bt470bg/unknown/unknown, progressive), 854x480 [SAR 35200:35197 DAR 3080:1731], q=2-31, 25 fps, 12800 tbn
[37m2026-04-29 00:19:32.733[39m[0m[0m	[32m[1mDEBUG[22m[39m[0m[0m	[37m$bunfs/root/pochi:104693[39m[0m[0m[1m[37m	MjpegToMp4[39m[22m[0m[0m	[ffmpeg] stderr:     Metadata:
[37m2026-04-29 00:19:32.733[39m[0m[0m	[32m[1mDEBUG[22m[39m[0m[0m	[37m$bunfs/root/pochi:104693[39m[0m[0m[1m[37m	MjpegToMp4[39m[22m[0m[0m	[ffmpeg] stderr:       encoder         : Lavc60.31.102 libx264
[37m2026-04-29 00:19:32.733[39m[0m[0m	[32m[1mDEBUG[22m[39m[0m[0m	[37m$bunfs/root/pochi:104693[39m[0m[0m[1m[37m	MjpegToMp4[39m[22m[0m[0m	[ffmpeg] stderr:     Side data:
[37m2026-04-29 00:19:32.733[39m[0m[0m	[32m[1mDEBUG[22m[39m[0m[0m	[37m$bunfs/root/pochi:104693[39m[0m[0m[1m[37m	MjpegToMp4[39m[22m[0m[0m	[ffmpeg] stderr:       cpb: bitrate max/min/avg: 0/0/0 buffer size: 0 vbv_delay: N/A
[37m2026-04-29 00:19:32.734[39m[0m[0m	[32m[1mDEBUG[22m[39m[0m[0m	[37m$bunfs/root/pochi:104693[39m[0m[0m[1m[37m	MjpegToMp4[39m[22m[0m[0m	[ffmpeg] stderr: frame=    0 fps=0.0 q=0.0 size=       0kB time=N/A bitrate=N/A speed=N/A    
[37m2026-04-29 00:19:33.409[39m[0m[0m	[32m[1mDEBUG[22m[39m[0m[0m	[37m$bunfs/root/pochi:104693[39m[0m[0m[1m[37m	MjpegToMp4[39m[22m[0m[0m	[ffmpeg] stderr: frame=  552 fps=0.0 q=28.0 size=       0kB time=00:00:22.00 bitrate=   0.0kbits/s dup=568 drop=0 speed=31.6x    
[37m2026-04-29 00:19:33.722[39m[0m[0m	[32m[1mDEBUG[22m[39m[0m[0m	[37m$bunfs/root/pochi:104693[39m[0m[0m[1m[37m	MjpegToMp4[39m[22m[0m[0m	[ffmpeg] stderr: [mp4 @ 0x580af7472880] Starting second pass: moving the moov atom to the beginning of the file
[37m2026-04-29 00:19:33.724[39m[0m[0m	[32m[1mDEBUG[22m[39m[0m[0m	[37m$bunfs/root/pochi:104693[39m[0m[0m[1m[37m	MjpegToMp4[39m[22m[0m[0m	[ffmpeg] stderr: [out#0/mp4 @ 0x580af746c2c0] video:51kB audio:0kB subtitle:0kB other streams:0kB global headers:0kB muxing overhead: 19.802187%
[37m2026-04-29 00:19:33.724[39m[0m[0m	[32m[1mDEBUG[22m[39m[0m[0m	[37m$bunfs/root/pochi:104693[39m[0m[0m[1m[37m	MjpegToMp4[39m[22m[0m[0m	[ffmpeg] stderr: frame=  797 fps=787 q=-1.0 Lsize=      62kB time=00:00:31.76 bitrate=  15.9kbits/s dup=782 drop=6 speed=31.4x    
[37m2026-04-29 00:19:33.724[39m[0m[0m	[32m[1mDEBUG[22m[39m[0m[0m	[37m$bunfs/root/pochi:104693[39m[0m[0m[1m[37m	MjpegToMp4[39m[22m[0m[0m	[ffmpeg] stderr: [libx264 @ 0x580af7477f80] frame I:5     Avg QP: 9.84  size:  5818
[37m2026-04-29 00:19:33.724[39m[0m[0m	[32m[1mDEBUG[22m[39m[0m[0m	[37m$bunfs/root/pochi:104693[39m[0m[0m[1m[37m	MjpegToMp4[39m[22m[0m[0m	[ffmpeg] stderr: [libx264 @ 0x580af7477f80] frame P:204   Avg QP:10.69  size:    43
[37m2026-04-29 00:19:33.724[39m[0m[0m	[32m[1mDEBUG[22m[39m[0m[0m	[37m$bunfs/root/pochi:104693[39m[0m[0m[1m[37m	MjpegToMp4[39m[22m[0m[0m	[ffmpeg] stderr: [libx264 @ 0x580af7477f80] frame B:588   Avg QP:12.68  size:    24
[37m2026-04-29 00:19:33.724[39m[0m[0m	[32m[1mDEBUG[22m[39m[0m[0m	[37m$bunfs/root/pochi:104693[39m[0m[0m[1m[37m	MjpegToMp4[39m[22m[0m[0m	[ffmpeg] stderr: [libx264 @ 0x580af7477f80] consecutive B-frames:  1.5%  0.3%  0.4% 97.9%
[37m2026-04-29 00:19:33.725[39m[0m[0m	[32m[1mDEBUG[22m[39m[0m[0m	[37m$bunfs/root/pochi:104693[39m[0m[0m[1m[37m	MjpegToMp4[39m[22m[0m[0m	[ffmpeg] stderr: [libx264 @ 0x580af7477f80] mb I  I16..4: 94.0%  0.4%  5.6%
[37m2026-04-29 00:19:33.725[39m[0m[0m	[32m[1mDEBUG[22m[39m[0m[0m	[37m$bunfs/root/pochi:104693[39m[0m[0m[1m[37m	MjpegToMp4[39m[22m[0m[0m	[ffmpeg] stderr: [libx264 @ 0x580af7477f80] mb P  I16..4:  0.1%  0.0%  0.0%  P16..4:  0.0%  0.0%  0.0%  0.0%  0.0%    skip:99.9%
[37m2026-04-29 00:19:33.725[39m[0m[0m	[32m[1mDEBUG[22m[39m[0m[0m	[37m$bunfs/root/pochi:104693[39m[0m[0m[1m[37m	MjpegToMp4[39m[22m[0m[0m	[ffmpeg] stderr: [libx264 @ 0x580af7477f80] mb B  I16..4:  0.0%  0.0%  0.0%  B16..8:  0.0%  0.0%  0.0%  direct: 0.0%  skip:100.0%  L0:76.0% L1:24.0% BI: 0.0%
[37m2026-04-29 00:19:33.725[39m[0m[0m	[32m[1mDEBUG[22m[39m[0m[0m	[37m$bunfs/root/pochi:104693[39m[0m[0m[1m[37m	MjpegToMp4[39m[22m[0m[0m	[ffmpeg] stderr: [libx264 @ 0x580af7477f80] 8x8 transform intra:0.6% inter:41.6%
[37m2026-04-29 00:19:33.725[39m[0m[0m	[32m[1mDEBUG[22m[39m[0m[0m	[37m$bunfs/root/pochi:104693[39m[0m[0m[1m[37m	MjpegToMp4[39m[22m[0m[0m	[ffmpeg] stderr: [libx264 @ 0x580af7477f80] coded y,uvDC,uvAC intra: 4.4% 4.7% 4.5% inter: 0.0% 0.0% 0.0%
[37m2026-04-29 00:19:33.725[39m[0m[0m	[32m[1mDEBUG[22m[39m[0m[0m	[37m$bunfs/root/pochi:104693[39m[0m[0m[1m[37m	MjpegToMp4[39m[22m[0m[0m	[ffmpeg] stderr: [libx264 @ 0x580af7477f80] i16 v,h,dc,p: 81% 15%  4%  0%
[37m2026-04-29 00:19:33.725[39m[0m[0m	[32m[1mDEBUG[22m[39m[0m[0m	[37m$bunfs/root/pochi:104693[39m[0m[0m[1m[37m	MjpegToMp4[39m[22m[0m[0m	[ffmpeg] stderr: [libx264 @ 0x580af7477f80] i8 v,h,dc,ddl,ddr,vr,hd,vl,hu:  5% 51% 37%  3%  0%  0%  0%  0%  5%
[37m2026-04-29 00:19:33.725[39m[0m[0m	[32m[1mDEBUG[22m[39m[0m[0m	[37m$bunfs/root/pochi:104693[39m[0m[0m[1m[37m	MjpegToMp4[39m[22m[0m[0m	[ffmpeg] stderr: [libx264 @ 0x580af7477f80] i4 v,h,dc,ddl,ddr,vr,hd,vl,hu: 23% 32% 25%  2%  3%  3%  5%  2%  5%
[37m2026-04-29 00:19:33.725[39m[0m[0m	[32m[1mDEBUG[22m[39m[0m[0m	[37m$bunfs/root/pochi:104693[39m[0m[0m[1m[37m	MjpegToMp4[39m[22m[0m[0m	[ffmpeg] stderr: [libx264 @ 0x580af7477f80] i8c dc,h,v,p: 96%  2%  2%  0%
[37m2026-04-29 00:19:33.725[39m[0m[0m	[32m[1mDEBUG[22m[39m[0m[0m	[37m$bunfs/root/pochi:104693[39m[0m[0m[1m[37m	MjpegToMp4[39m[22m[0m[0m	[ffmpeg] stderr: [libx264 @ 0x580af7477f80] Weighted P-Frames: Y:0.0% UV:0.0%
[37m2026-04-29 00:19:33.725[39m[0m[0m	[32m[1mDEBUG[22m[39m[0m[0m	[37m$bunfs/root/pochi:104693[39m[0m[0m[1m[37m	MjpegToMp4[39m[22m[0m[0m	[ffmpeg] stderr: [libx264 @ 0x580af7477f80] kb/s:13.02
[37m2026-04-29 00:19:33.734[39m[0m[0m	[32m[1mDEBUG[22m[39m[0m[0m	[37m$bunfs/root/pochi:104693[39m[0m[0m[1m[37m	MjpegToMp4[39m[22m[0m[0m	[ffmpeg] stderr: 
[37m2026-04-29 00:19:33.735[39m[0m[0m	[32m[1mDEBUG[22m[39m[0m[0m	[37mevents:98[39m[0m[0m[1m[37m	MjpegToMp4[39m[22m[0m[0m	[ffmpeg] end
[37m2026-04-29 00:19:38.572[39m[0m[0m	[32m[1mDEBUG[22m[39m[0m[0m	[37mnative:7[39m[0m[0m[1m[37m	Pochi[39m[22m[0m[0m	Task runner finished successfully.
[37m2026-04-29 00:19:38.572[39m[0m[0m	[32m[1mDEBUG[22m[39m[0m[0m	[37mnative:7[39m[0m[0m[1m[37m	Pochi[39m[22m[0m[0m	Shutting down...
[37m2026-04-29 00:19:38.584[39m[0m[0m	[32m[1mDEBUG[22m[39m[0m[0m	[37mnative:7[39m[0m[0m[1m[37m	Pochi[39m[22m[0m[0m	Shutdown completed. Process will exit.
[37m2026-04-29 00:19:38.585[39m[0m[0m	[32m[1mDEBUG[22m[39m[0m[0m	[37m[39m[0m[0m[1m[37m	Pochi[39m[22m[0m[0m	Process exiting with code 0
ed pixel format used, make sure you did set range correctly
[37m2026-04-29 00:17:43.058[39m[0m[0m	[32m[1mDEBUG[22m[39m[0m[0m	[37m$bunfs/root/pochi:104693[39m[0m[0m[1m[37m	MjpegToMp4[39m[22m[0m[0m	[ffmpeg] stderr:     Last message repeated 2 times
[37m2026-04-29 00:17:43.059[39m[0m[0m	[32m[1mDEBUG[22m[39m[0m[0m	[37m$bunfs/root/pochi:104693[39m[0m[0m[1m[37m	MjpegToMp4[39m[22m[0m[0m	[ffmpeg] stderr: [libx264 @ 0x5bfd44a65580] using SAR=1/1
[37m2026-04-29 00:17:43.059[39m[0m[0m	[32m[1mDEBUG[22m[39m[0m[0m	[37m$bunfs/root/pochi:104693[39m[0m[0m[1m[37m	MjpegToMp4[39m[22m[0m[0m	[ffmpeg] stderr: [libx264 @ 0x5bfd44a65580] using cpu capabilities: MMX2 SSE2Fast SSSE3 SSE4.2 AVX FMA3 BMI2 AVX2
[37m2026-04-29 00:17:43.060[39m[0m[0m	[32m[1mDEBUG[22m[39m[0m[0m	[37m$bunfs/root/pochi:104693[39m[0m[0m[1m[37m	MjpegToMp4[39m[22m[0m[0m	[ffmpeg] stderr: [libx264 @ 0x5bfd44a65580] profile High, level 3.0, 4:2:0, 8-bit
[37m2026-04-29 00:17:43.061[39m[0m[0m	[32m[1mDEBUG[22m[39m[0m[0m	[37m$bunfs/root/pochi:104693[39m[0m[0m[1m[37m	MjpegToMp4[39m[22m[0m[0m	[ffmpeg] stderr: [libx264 @ 0x5bfd44a65580] 264 - core 164 r3108 31e19f9 - H.264/MPEG-4 AVC codec - Copyleft 2003-2023 - http://www.videolan.org/x264.html - options: cabac=1 ref=1 deblock=1:0:0 analyse=0x3:0x113 me=hex subme=2 psy=1 psy_rd=1.00:0.00 mixed_ref=0 me_range=16 chroma_me=1 trellis=0 8x8dct=1 cqm=0 deadzone=21,11 fast_pskip=1 chroma_qp_offset=0 threads=6 lookahead_threads=2 sliced_threads=0 nr=0 decimate=1 interlaced=0 bluray_compat=0 constrained_intra=0 bframes=3 b_pyramid=2 b_adapt=1 b_bias=0 direct=1 weightb=1 open_gop=0 weightp=1 keyint=250 keyint_min=25 scenecut=40 intra_refresh=0 rc_lookahead=10 rc=crf mbtree=1 crf=23.0 qcomp=0.60 qpmin=0 qpmax=69 qpstep=4 ip_ratio=1.40 aq=1:1.00
[37m2026-04-29 00:17:43.061[39m[0m[0m	[32m[1mDEBUG[22m[39m[0m[0m	[37m$bunfs/root/pochi:104693[39m[0m[0m[1m[37m	MjpegToMp4[39m[22m[0m[0m	[ffmpeg] stderr: Output #0, mp4, to '/tmp/pochi-browser-agent-video-59f2fa71-402f-45f6-b318-8db30ab31ec1.mp4':
[37m2026-04-29 00:17:43.061[39m[0m[0m	[32m[1mDEBUG[22m[39m[0m[0m	[37m$bunfs/root/pochi:104693[39m[0m[0m[1m[37m	MjpegToMp4[39m[22m[0m[0m	[ffmpeg] stderr:   Metadata:
[37m2026-04-29 00:17:43.061[39m[0m[0m	[32m[1mDEBUG[22m[39m[0m[0m	[37m$bunfs/root/pochi:104693[39m[0m[0m[1m[37m	MjpegToMp4[39m[22m[0m[0m	[ffmpeg] stderr:     encoder         : Lavf60.16.100
[37m2026-04-29 00:17:43.061[39m[0m[0m	[32m[1mDEBUG[22m[39m[0m[0m	[37m$bunfs/root/pochi:104693[39m[0m[0m[1m[37m	MjpegToMp4[39m[22m[0m[0m	[ffmpeg] stderr:   Stream #0:0: Video: h264 (avc1 / 0x31637661), yuv420p(tv, bt470bg/unknown/unknown, progressive), 854x480 [SAR 35200:35197 DAR 3080:1731], q=2-31, 25 fps, 12800 tbn
[37m2026-04-29 00:17:43.061[39m[0m[0m	[32m[1mDEBUG[22m[39m[0m[0m	[37m$bunfs/root/pochi:104693[39m[0m[0m[1m[37m	MjpegToMp4[39m[22m[0m[0m	[ffmpeg] stderr:     Metadata:
[37m2026-04-29 00:17:43.061[39m[0m[0m	[32m[1mDEBUG[22m[39m[0m[0m	[37m$bunfs/root/pochi:104693[39m[0m[0m[1m[37m	MjpegToMp4[39m[22m[0m[0m	[ffmpeg] stderr:       encoder         : Lavc60.31.102 libx264
[37m2026-04-29 00:17:43.061[39m[0m[0m	[32m[1mDEBUG[22m[39m[0m[0m	[37m$bunfs/root/pochi:104693[39m[0m[0m[1m[37m	MjpegToMp4[39m[22m[0m[0m	[ffmpeg] stderr:     Side data:
[37m2026-04-29 00:17:43.061[39m[0m[0m	[32m[1mDEBUG[22m[39m[0m[0m	[37m$bunfs/root/pochi:104693[39m[0m[0m[1m[37m	MjpegToMp4[39m[22m[0m[0m	[ffmpeg] stderr:       cpb: bitrate max/min/avg: 0/0/0 buffer size: 0 vbv_delay: N/A
[37m2026-04-29 00:17:43.062[39m[0m[0m	[32m[1mDEBUG[22m[39m[0m[0m	[37m$bunfs/root/pochi:104693[39m[0m[0m[1m[37m	MjpegToMp4[39m[22m[0m[0m	[ffmpeg] stderr: frame=    0 fps=0.0 q=0.0 size=       0kB time=N/A bitrate=N/A speed=N/A    
[37m2026-04-29 00:17:43.859[39m[0m[0m	[32m[1mDEBUG[22m[39m[0m[0m	[37m$bunfs/root/pochi:104693[39m[0m[0m[1m[37m	MjpegToMp4[39m[22m[0m[0m	[ffmpeg] stderr: frame=  733 fps=0.0 q=28.0 size=       0kB time=00:00:29.20 bitrate=   0.0kbits/s dup=747 drop=0 speed=52.9x    
[37m2026-04-29 00:17:44.076[39m[0m[0m	[32m[1mDEBUG[22m[39m[0m[0m	[37m$bunfs/root/pochi:104693[39m[0m[0m[1m[37m	MjpegToMp4[39m[22m[0m[0m	[ffmpeg] stderr: [vost#0:0/libx264 @ 0x5bfd44a65280] More than 1000 frames duplicated
[37m2026-04-29 00:17:44.772[39m[0m[0m	[32m[1mDEBUG[22m[39m[0m[0m	[37m$bunfs/root/pochi:104693[39m[0m[0m[1m[37m	MjpegToMp4[39m[22m[0m[0m	[ffmpeg] stderr: frame= 1373 fps=1014 q=28.0 size=       0kB time=00:00:54.92 bitrate=   0.0kbits/s dup=1378 drop=6 speed=40.5x    
[37m2026-04-29 00:17:45.132[39m[0m[0m	[32m[1mDEBUG[22m[39m[0m[0m	[37m$bunfs/root/pochi:104693[39m[0m[0m[1m[37m	MjpegToMp4[39m[22m[0m[0m	[ffmpeg] stderr: frame= 1632 fps=781 q=28.0 size=       0kB time=00:01:05.16 bitrate=   0.0kbits/s dup=1631 drop=6 speed=31.2x    
[37m2026-04-29 00:17:45.871[39m[0m[0m	[32m[1mDEBUG[22m[39m[0m[0m	[37m$bunfs/root/pochi:104693[39m[0m[0m[1m[37m	MjpegToMp4[39m[22m[0m[0m	[ffmpeg] stderr: frame= 2363 fps=850 q=28.0 size=       0kB time=00:01:34.40 bitrate=   0.0kbits/s dup=2356 drop=6 speed=  34x    
[37m2026-04-29 00:17:46.384[39m[0m[0m	[32m[1mDEBUG[22m[39m[0m[0m	[37m$bunfs/root/pochi:104693[39m[0m[0m[1m[37m	MjpegToMp4[39m[22m[0m[0m	[ffmpeg] stderr: frame= 2869 fps=858 q=28.0 size=       0kB time=00:01:54.68 bitrate=   0.0kbits/s dup=2858 drop=6 speed=34.3x    
[37m2026-04-29 00:17:47.301[39m[0m[0m	[32m[1mDEBUG[22m[39m[0m[0m	[37m$bunfs/root/pochi:104693[39m[0m[0m[1m[37m	MjpegToMp4[39m[22m[0m[0m	[ffmpeg] stderr: frame= 3732 fps=929 q=28.0 size=       0kB time=00:02:29.20 bitrate=   0.0kbits/s dup=3714 drop=6 speed=37.1x    
[37m2026-04-29 00:17:47.805[39m[0m[0m	[32m[1mDEBUG[22m[39m[0m[0m	[37m$bunfs/root/pochi:104693[39m[0m[0m[1m[37m	MjpegToMp4[39m[22m[0m[0m	[ffmpeg] stderr: frame= 4242 fps=939 q=28.0 size=       0kB time=00:02:49.56 bitrate=   0.0kbits/s dup=4219 drop=6 speed=37.5x    
[37m2026-04-29 00:17:48.298[39m[0m[0m	[32m[1mDEBUG[22m[39m[0m[0m	[37m$bunfs/root/pochi:104693[39m[0m[0m[1m[37m	MjpegToMp4[39m[22m[0m[0m	[ffmpeg] stderr: frame= 4737 fps=901 q=28.0 size=       0kB time=00:03:09.40 bitrate=   0.0kbits/s dup=4712 drop=6 speed=  36x    
[37m2026-04-29 00:17:49.190[39m[0m[0m	[32m[1mDEBUG[22m[39m[0m[0m	[37m$bunfs/root/pochi:104693[39m[0m[0m[1m[37m	MjpegToMp4[39m[22m[0m[0m	[ffmpeg] stderr: frame= 5623 fps=939 q=28.0 size=       0kB time=00:03:44.84 bitrate=   0.0kbits/s dup=5591 drop=6 speed=37.5x    
[37m2026-04-29 00:17:49.593[39m[0m[0m	[32m[1mDEBUG[22m[39m[0m[0m	[37m$bunfs/root/pochi:104693[39m[0m[0m[1m[37m	MjpegToMp4[39m[22m[0m[0m	[ffmpeg] stderr: frame= 6023 fps=927 q=28.0 size=       0kB time=00:04:00.84 bitrate=   0.0kbits/s dup=5987 drop=6 speed=37.1x    
[37m2026-04-29 00:17:50.151[39m[0m[0m	[32m[1mDEBUG[22m[39m[0m[0m	[37m$bunfs/root/pochi:104693[39m[0m[0m[1m[37m	MjpegToMp4[39m[22m[0m[0m	[ffmpeg] stderr: frame= 6538 fps=920 q=28.0 size=     256kB time=00:04:21.44 bitrate=   8.0kbits/s dup=6495 drop=6 speed=36.8x    
[37m2026-04-29 00:17:50.195[39m[0m[0m	[32m[1mDEBUG[22m[39m[0m[0m	[37m$bunfs/root/pochi:104693[39m[0m[0m[1m[37m	MjpegToMp4[39m[22m[0m[0m	[ffmpeg] stderr: [mp4 @ 0x5bfd44a64c40] Starting second pass: moving the moov atom to the beginning of the file
[37m2026-04-29 00:17:50.196[39m[0m[0m	[32m[1mDEBUG[22m[39m[0m[0m	[37m$bunfs/root/pochi:104693[39m[0m[0m[1m[37m	MjpegToMp4[39m[22m[0m[0m	[ffmpeg] stderr: [out#0/mp4 @ 0x5bfd44a63180] video:279kB audio:0kB subtitle:0kB other streams:0kB global headers:0kB muxing overhead: 27.974924%
[37m2026-04-29 00:17:50.197[39m[0m[0m	[32m[1mDEBUG[22m[39m[0m[0m	[37m$bunfs/root/pochi:104693[39m[0m[0m[1m[37m	MjpegToMp4[39m[22m[0m[0m	[ffmpeg] stderr: frame= 6587 fps=920 q=-1.0 Lsize=     356kB time=00:04:23.36 bitrate=  11.1kbits/s dup=6521 drop=6 speed=36.8x    
[37m2026-04-29 00:17:50.197[39m[0m[0m	[32m[1mDEBUG[22m[39m[0m[0m	[37m$bunfs/root/pochi:104693[39m[0m[0m[1m[37m	MjpegToMp4[39m[22m[0m[0m	[ffmpeg] stderr: [libx264 @ 0x5bfd44a65580] frame I:28    Avg QP: 9.80  size:  3655
[37m2026-04-29 00:17:50.197[39m[0m[0m	[32m[1mDEBUG[22m[39m[0m[0m	[37m$bunfs/root/pochi:104693[39m[0m[0m[1m[37m	MjpegToMp4[39m[22m[0m[0m	[ffmpeg] stderr: [libx264 @ 0x5bfd44a65580] frame P:1663  Avg QP:10.36  size:    39
[37m2026-04-29 00:17:50.197[39m[0m[0m	[32m[1mDEBUG[22m[39m[0m[0m	[37m$bunfs/root/pochi:104693[39m[0m[0m[1m[37m	MjpegToMp4[39m[22m[0m[0m	[ffmpeg] stderr: [libx264 @ 0x5bfd44a65580] frame B:4896  Avg QP:12.68  size:    24
[37m2026-04-29 00:17:50.197[39m[0m[0m	[32m[1mDEBUG[22m[39m[0m[0m	[37m$bunfs/root/pochi:104693[39m[0m[0m[1m[37m	MjpegToMp4[39m[22m[0m[0m	[ffmpeg] stderr: [libx264 @ 0x5bfd44a65580] consecutive B-frames:  0.8%  0.2%  0.2% 98.8%
[37m2026-04-29 00:17:50.197[39m[0m[0m	[32m[1mDEBUG[22m[39m[0m[0m	[37m$bunfs/root/pochi:104693[39m[0m[0m[1m[37m	MjpegToMp4[39m[22m[0m[0m	[ffmpeg] stderr: [libx264 @ 0x5bfd44a65580] mb I  I16..4: 96.2%  0.3%  3.4%
[37m2026-04-29 00:17:50.197[39m[0m[0m	[32m[1mDEBUG[22m[39m[0m[0m	[37m$bunfs/root/pochi:104693[39m[0m[0m[1m[37m	MjpegToMp4[39m[22m[0m[0m	[ffmpeg] stderr: [libx264 @ 0x5bfd44a65580] mb P  I16..4:  0.0%  0.0%  0.0%  P16..4:  0.0%  0.0%  0.0%  0.0%  0.0%    skip:99.9%
[37m2026-04-29 00:17:50.197[39m[0m[0m	[32m[1mDEBUG[22m[39m[0m[0m	[37m$bunfs/root/pochi:104693[39m[0m[0m[1m[37m	MjpegToMp4[39m[22m[0m[0m	[ffmpeg] stderr: [libx264 @ 0x5bfd44a65580] mb B  I16..4:  0.0%  0.0%  0.0%  B16..8:  0.0%  0.0%  0.0%  direct: 0.0%  skip:100.0%  L0:41.6% L1:58.1% BI: 0.3%
[37m2026-04-29 00:17:50.197[39m[0m[0m	[32m[1mDEBUG[22m[39m[0m[0m	[37m$bunfs/root/pochi:104693[39m[0m[0m[1m[37m	MjpegToMp4[39m[22m[0m[0m	[ffmpeg] stderr: [libx264 @ 0x5bfd44a65580] 8x8 transform intra:0.4% inter:29.4%
[37m2026-04-29 00:17:50.198[39m[0m[0m	[32m[1mDEBUG[22m[39m[0m[0m	[37m$bunfs/root/pochi:104693[39m[0m[0m[1m[37m	MjpegToMp4[39m[22m[0m[0m	[ffmpeg] stderr: [libx264 @ 0x5bfd44a65580] coded y,uvDC,uvAC intra: 3.5% 4.1% 3.8% inter: 0.0% 0.0% 0.0%
[37m2026-04-29 00:17:50.198[39m[0m[0m	[32m[1mDEBUG[22m[39m[0m[0m	[37m$bunfs/root/pochi:104693[39m[0m[0m[1m[37m	MjpegToMp4[39m[22m[0m[0m	[ffmpeg] stderr: [libx264 @ 0x5bfd44a65580] i16 v,h,dc,p: 77% 20%  3%  0%
[37m2026-04-29 00:17:50.198[39m[0m[0m	[32m[1mDEBUG[22m[39m[0m[0m	[37m$bunfs/root/pochi:104693[39m[0m[0m[1m[37m	MjpegToMp4[39m[22m[0m[0m	[ffmpeg] stderr: [libx264 @ 0x5bfd44a65580] i8 v,h,dc,ddl,ddr,vr,hd,vl,hu: 19% 52% 22%  0%  0%  1%  0%  0%  6%
[37m2026-04-29 00:17:50.198[39m[0m[0m	[32m[1mDEBUG[22m[39m[0m[0m	[37m$bunfs/root/pochi:104693[39m[0m[0m[1m[37m	MjpegToMp4[39m[22m[0m[0m	[ffmpeg] stderr: [libx264 @ 0x5bfd44a65580] i4 v,h,dc,ddl,ddr,vr,hd,vl,hu: 30% 28% 23%  2%  3%  3%  4%  2%  4%
[37m2026-04-29 00:17:50.198[39m[0m[0m	[32m[1mDEBUG[22m[39m[0m[0m	[37m$bunfs/root/pochi:104693[39m[0m[0m[1m[37m	MjpegToMp4[39m[22m[0m[0m	[ffmpeg] stderr: [libx264 @ 0x5bfd44a65580] i8c dc,h,v,p: 93%  5%  2%  0%
[37m2026-04-29 00:17:50.198[39m[0m[0m	[32m[1mDEBUG[22m[39m[0m[0m	[37m$bunfs/root/pochi:104693[39m[0m[0m[1m[37m	MjpegToMp4[39m[22m[0m[0m	[ffmpeg] stderr: [libx264 @ 0x5bfd44a65580] Weighted P-Frames: Y:0.0% UV:0.0%
[37m2026-04-29 00:17:50.198[39m[0m[0m	[32m[1mDEBUG[22m[39m[0m[0m	[37m$bunfs/root/pochi:104693[39m[0m[0m[1m[37m	MjpegToMp4[39m[22m[0m[0m	[ffmpeg] stderr: [libx264 @ 0x5bfd44a65580] kb/s:8.64
[37m2026-04-29 00:17:50.206[39m[0m[0m	[32m[1mDEBUG[22m[39m[0m[0m	[37m$bunfs/root/pochi:104693[39m[0m[0m[1m[37m	MjpegToMp4[39m[22m[0m[0m	[ffmpeg] stderr: 
[37m2026-04-29 00:17:50.206[39m[0m[0m	[32m[1mDEBUG[22m[39m[0m[0m	[37mevents:98[39m[0m[0m[1m[37m	MjpegToMp4[39m[22m[0m[0m	[ffmpeg] end
[37m2026-04-29 00:18:02.987[39m[0m[0m	[32m[1mDEBUG[22m[39m[0m[0m	[37mnative:7[39m[0m[0m[1m[37m	Pochi[39m[22m[0m[0m	Task runner finished successfully.
[37m2026-04-29 00:18:02.988[39m[0m[0m	[32m[1mDEBUG[22m[39m[0m[0m	[37mnative:7[39m[0m[0m[1m[37m	Pochi[39m[22m[0m[0m	Shutting down...
[37m2026-04-29 00:18:03.013[39m[0m[0m	[32m[1mDEBUG[22m[39m[0m[0m	[37mnative:7[39m[0m[0m[1m[37m	Pochi[39m[22m[0m[0m	Shutdown completed. Process will exit.
[37m2026-04-29 00:18:03.014[39m[0m[0m	[32m[1mDEBUG[22m[39m[0m[0m	[37m[39m[0m[0m[1m[37m	Pochi[39m[22m[0m[0m	Process exiting with code 0
